<?xml version="1.0" standalone="no"?><!DOCTYPE svg PUBLIC "-//W3C//DTD SVG 1.1//EN" "http://www.w3.org/Graphics/SVG/1.1/DTD/svg11.dtd"><svg t="1681990434205" class="icon" viewBox="0 0 1072 1024" version="1.1" xmlns="http://www.w3.org/2000/svg" p-id="2941" xmlns:xlink="http://www.w3.org/1999/xlink" width="134" height="128"><path d="M975.418384 701.760533a468.612235 468.612235 0 0 1-891.057939-2.681266A120.803237 120.803237 0 0 1 0.02243 581.59105v-12.187575a122.09512 122.09512 0 0 1 69.444799-112.125684c28.518924-145.519638 123.070126-291.039276 250.649655-355.633421l-6.776291-50.456558 108.445037 12.918829 0.219376 0.487503c2.705642-0.731254 5.484408-1.218757 8.214425-1.950012l-8.433801-62.644132 120.510735 38.512735 33.540205 15.112592c4.704404 0.487503 9.262557 1.462509 13.942585 1.950012l0.731255-55.575339 141.375862 95.794335 2.096263 2.681266c129.505165 63.131635 226.177005 208.163771 256.30469 353.92716a121.046989 121.046989 0 0 1 82.193001 117.000714v12.187575a119.438229 119.438229 0 0 1-97.061842 120.169483z m-439.337682 200.119972a127.140776 127.140776 0 0 0 121.875744-131.869555c0-4.631278-0.243751-9.506308-0.682504-13.893835a356.974054 356.974054 0 0 1-242.410855 0c-0.438753 4.387527-0.706879 9.262557-0.706879 13.893835a127.140776 127.140776 0 0 0 121.924494 131.869555z m-195.00119-414.37753a48.994049 48.994049 0 1 0 48.750298 48.99405 48.750298 48.750298 0 0 0-48.847798-48.99405z m366.212235 0a48.994049 48.994049 0 1 0 48.750298 48.99405 48.920924 48.920924 0 0 0-48.847798-48.99405z" p-id="2942" fill="#ffffff"></path></svg>